<?xml version="1.0" encoding="UTF-8"?><svg id="Layer_1" xmlns="http://www.w3.org/2000/svg" viewBox="0 0 129.26 127.36"><defs><style>.cls-1{fill:#010101;}.cls-2{fill:#fff;}.cls-3{fill:#7f8080;}.cls-4{fill:#991915;}.cls-5{fill:#9089c2;}.cls-6{fill:#be1823;}.cls-7{fill:#e30615;}.cls-8{fill:#1a1b19;}.cls-9{fill:#595757;}</style></defs><path class="cls-7" d="M71.53,90.97l-17.48,4.02-.8,23.24,18.99-4.49s-.72-22.77-.72-22.77Z"/><ellipse class="cls-5" cx="63.68" cy="62.92" rx="63.68" ry="62.92" transform="translate(-2.21 2.32) rotate(-2.05)"/><path class="cls-6" d="M63.04,116.94l9.94-1.34-.75-13.3-9.19,1.17s0,13.47,0,13.47Z"/><path class="cls-4" d="M65.59,62.92L65.56,0s.02,0,.03,0c34.93,0,63.68,28.4,63.68,62.92,0,34.52-28.74,62.92-63.68,62.92-1.45,0-2.89-.05-4.34-.15l4.34-62.77Z"/><path class="cls-3" d="M64.97,76.07l-.09-27.4s.06,0,.09,0c13.7,0,24.97,12.37,24.97,27.4s-11.27,27.4-24.97,27.4v-27.4Z"/><path class="cls-9" d="M66.14,105.54v21.81c-26.95-1.15-55.01-.42-47.62-15.9,7.39-15.48,28.85-24.64,47.71-24.6,0,0-.06,12.46-.08,18.69Z"/><path class="cls-2" d="M65.54,65.23l.09,32.44s-.06,0-.09,0c-13.7,0-24.97-14.64-24.97-32.44s11.27-32.44,24.97-32.44v32.44Z"/><path class="cls-9" d="M61.26,13.25c-11.24-.2-20.51,8.19-20.74,18.77v28.5h-5.61c-2.44,0-4.42,1.86-4.42,4.16h0v1.12c0,2.3,1.98,4.16,4.42,4.16h30.73V13.25h-4.38Z"/><path class="cls-8" d="M107.47,65.09v-1.31c0-2.69-2.35-4.87-5.26-4.87h-6.7V26.03c.44-11.99-9.72-22.01-22.65-22.42h-7.23V69.95h36.57c2.91,0,5.26-2.18,5.26-4.87h0Z"/><path class="cls-1" d="M66.01,108.66v-21.81c29.42,1.15,60.06,.42,51.99,15.9-8.06,15.48-31.5,24.64-52.08,24.6,0,0,.06-12.46,.09-18.69Z"/></svg>