<?xml version="1.0" encoding="UTF-8"?><svg id="Layer_1" xmlns="http://www.w3.org/2000/svg" viewBox="0 0 378.65 76.01"><defs><style>.cls-1{fill:#010101;}.cls-2{fill:#f5f4f5;}.cls-3{fill:#e5e5e4;}.cls-4{fill:#7f8080;}.cls-5{fill:#991915;}.cls-6{fill:#9089c2;}.cls-7{fill:#be1823;}.cls-8{fill:#e30615;}.cls-9{fill:#434342;}.cls-10{fill:#1a1b19;}.cls-11{fill:#595757;}</style></defs><g><path class="cls-2" d="M121.06,47.69v-6.15h-6.43c-.52,0-.9-.14-1.15-.42-.25-.28-.38-.7-.38-1.27,0-.66,.11-1.11,.34-1.35,.23-.24,.66-.36,1.3-.36h11.21c.45,0,.78,.14,1,.43,.22,.28,.32,.71,.32,1.28,0,.64-.14,1.08-.43,1.32s-.79,.36-1.52,.36h-.34v7.81c0,.47-.05,.79-.16,.97-.1,.18-.31,.36-.62,.53-.99,.59-2.42,1.09-4.31,1.5s-3.8,.62-5.73,.62c-4.63,0-8.38-1.48-11.23-4.44s-4.28-6.81-4.28-11.57,1.4-8.68,4.19-11.78c2.79-3.09,6.35-4.64,10.67-4.64,1.18,0,2.36,.13,3.54,.4,1.18,.27,2.42,.67,3.7,1.21,.17-.45,.41-.77,.71-.97,.3-.2,.7-.3,1.18-.3,.81,0,1.35,.24,1.62,.73s.4,1.6,.4,3.35v3.53c0,.85-.15,1.44-.44,1.78-.29,.34-.8,.51-1.53,.51-.9,0-1.55-.55-1.94-1.66-.14-.33-.25-.58-.34-.75-.64-1.37-1.56-2.42-2.75-3.16-1.19-.74-2.56-1.12-4.1-1.12-3.09,0-5.57,1.12-7.42,3.36-1.85,2.24-2.77,5.26-2.77,9.06s1.02,7.04,3.06,9.35c2.04,2.31,4.76,3.47,8.14,3.47,.99,0,2-.13,3.05-.39,1.05-.26,2.19-.67,3.44-1.24Z"/><path class="cls-2" d="M158.82,34.33c2.02,.55,3.59,1.56,4.71,3.02,1.11,1.46,1.67,3.25,1.67,5.36,0,3.03-1.07,5.5-3.22,7.43s-4.92,2.89-8.33,2.89c-2.63,0-4.97-.51-7.02-1.52-2.05-1.01-3.07-2.12-3.07-3.33,0-.52,.19-.95,.56-1.28,.37-.34,.83-.51,1.36-.51,.29,0,1.36,.44,3.2,1.32s3.56,1.32,5.15,1.32c2.06,0,3.73-.59,5.02-1.76,1.29-1.18,1.93-2.7,1.93-4.56,0-1.54-.44-2.84-1.34-3.9-.89-1.06-2.11-1.74-3.67-2.04-.47-.09-1.08-.16-1.84-.21-1.45-.09-2.18-.69-2.18-1.82,0-1.02,.71-1.62,2.13-1.79,.55-.05,1.01-.11,1.37-.18,1.35-.21,2.44-.76,3.27-1.66s1.24-1.99,1.24-3.27c0-1.64-.51-2.98-1.53-4.02s-2.32-1.56-3.89-1.56c-1.45,0-2.94,.45-4.47,1.35s-2.48,1.35-2.87,1.35c-.48,0-.89-.16-1.21-.47s-.48-.7-.48-1.17c0-1.05,.97-2.1,2.9-3.15,1.94-1.05,4.08-1.57,6.43-1.57,2.7,0,4.94,.82,6.73,2.45s2.68,3.64,2.68,6.03c0,1.82-.43,3.31-1.28,4.49s-2.18,2.09-3.98,2.75Z"/><path class="cls-2" d="M190.6,35.18c.93-1.21,1.97-2.12,3.11-2.72s2.39-.91,3.74-.91c2.73,0,5.05,1.03,6.96,3.09,1.91,2.06,2.87,4.59,2.87,7.6s-.92,5.73-2.77,7.76c-1.85,2.02-4.22,3.03-7.11,3.03-3.41,0-6.13-1.35-8.18-4.06-2.05-2.71-3.07-6.32-3.07-10.83,0-5.88,1.51-10.6,4.54-14.17,3.02-3.57,7.02-5.36,11.98-5.36,1.68,0,2.78,.12,3.32,.36,.54,.24,.8,.7,.8,1.37,0,1.11-1.02,1.68-3.06,1.71-1.35,.02-2.43,.1-3.24,.26-2.73,.52-4.95,1.89-6.65,4.11-1.7,2.22-2.78,5.14-3.23,8.75Zm.57,6.9c0,2.13,.56,3.86,1.69,5.2,1.12,1.34,2.57,2.01,4.33,2.01,1.66,0,3.02-.63,4.08-1.89,1.06-1.26,1.6-2.91,1.6-4.95s-.55-3.82-1.65-5.14-2.51-1.97-4.24-1.97-3.06,.63-4.16,1.89c-1.1,1.26-1.65,2.88-1.65,4.85Z"/><path class="cls-2" d="M238.71,53.03c-3.25,0-5.83-1.53-7.74-4.6-1.91-3.07-2.87-7.28-2.87-12.62s.95-9.52,2.87-12.59c1.91-3.07,4.49-4.6,7.74-4.6s5.84,1.54,7.76,4.62,2.88,7.27,2.88,12.58-.96,9.51-2.88,12.59c-1.92,3.09-4.51,4.63-7.76,4.63Zm0-30.71c-1.99,0-3.54,1.18-4.64,3.53-1.11,2.35-1.66,5.68-1.66,9.97s.55,7.65,1.66,10.01c1.11,2.36,2.65,3.54,4.64,3.54s3.56-1.18,4.67-3.54c1.11-2.36,1.66-5.7,1.66-10.01s-.55-7.62-1.66-9.97c-1.11-2.35-2.66-3.53-4.67-3.53Z"/><path class="cls-7" d="M274.48,52.17h-5.27c-.64,0-1.12-.16-1.44-.47-.32-.31-.48-.78-.48-1.4,0-.67,.19-1.14,.56-1.4,.37-.26,1.08-.39,2.11-.39h.47V25.14h-.41c-1.04,0-1.75-.14-2.14-.42s-.58-.76-.58-1.45c0-.64,.16-1.11,.48-1.41,.32-.3,.82-.45,1.49-.45h10.95c4.31,0,7.74,1.39,10.3,4.16s3.84,6.52,3.84,11.24c0,2.3-.37,4.44-1.1,6.41-.73,1.97-1.8,3.7-3.2,5.19-1.3,1.35-2.88,2.33-4.73,2.94-1.86,.61-4.25,.92-7.17,.92-.35,0-.93-.02-1.75-.05s-1.46-.05-1.91-.05Zm0-3.66c.55,.05,1.1,.09,1.65,.12,.54,.03,1.08,.04,1.59,.04,4.25,0,7.37-.95,9.35-2.85,1.98-1.9,2.97-4.9,2.97-9s-.99-7.11-2.98-8.99c-1.99-1.88-5.17-2.81-9.54-2.81-.81,0-1.43,0-1.85,.03-.42,.02-.82,.05-1.18,.1v23.37Z"/><path class="cls-7" d="M318.63,25.14h-3.79c-1.05,0-1.79-.14-2.22-.43-.42-.29-.64-.77-.64-1.44,0-.71,.19-1.2,.56-1.47,.37-.27,1.39-.4,3.05-.4h7.39c.95,0,1.59,.13,1.93,.38,.34,.25,.64,.71,.92,1.39l10.14,25.34h.44c.93,0,1.57,.13,1.92,.39,.35,.26,.52,.73,.52,1.4,0,.71-.16,1.2-.49,1.47-.33,.27-.94,.4-1.84,.4h-7.06c-1.31,0-2.16-.13-2.53-.4-.37-.27-.56-.76-.56-1.47,0-.66,.2-1.12,.61-1.39,.41-.27,1.17-.4,2.29-.4h2.41l-2.52-6.17h-13.18l-2.23,6.17h2.52c1.14,0,1.92,.13,2.34,.4,.41,.27,.62,.73,.62,1.39,0,.71-.19,1.2-.56,1.47-.37,.27-1.19,.4-2.45,.4h-6.82c-1.11,0-1.84-.13-2.2-.4-.36-.27-.54-.76-.54-1.47s.18-1.14,.54-1.4c.36-.26,1.06-.39,2.1-.39h.49l8.82-23.37Zm-1.32,13.75h10.61l-5.58-13.75-5.03,13.75Z"/><path class="cls-7" d="M378.65,36.76c0,4.74-1.31,8.62-3.94,11.66s-5.99,4.55-10.09,4.55-7.41-1.52-10.05-4.56c-2.64-3.04-3.96-6.92-3.96-11.65s1.31-8.67,3.92-11.68c2.61-3.02,5.97-4.53,10.09-4.53s7.46,1.52,10.09,4.56,3.94,6.92,3.94,11.65Zm-14.03,12.55c2.9,0,5.19-1.11,6.86-3.34,1.67-2.23,2.5-5.3,2.5-9.21s-.83-6.99-2.5-9.21c-1.67-2.23-3.95-3.34-6.86-3.34s-5.21,1.1-6.86,3.31c-1.65,2.21-2.48,5.29-2.48,9.24s.83,6.99,2.5,9.21c1.67,2.23,3.95,3.34,6.83,3.34Z"/></g><path class="cls-8" d="M42.57,54.37l-10.4,2.39-.47,13.82,11.3-2.67s-.43-13.54-.43-13.54Z"/><ellipse class="cls-6" cx="37.88" cy="37.56" rx="37.88" ry="37.56" transform="translate(-1.32 1.38) rotate(-2.05)"/><path class="cls-7" d="M37.52,69.82l5.92-.8-.45-7.92-5.47,.7v8.01Z"/><path class="cls-5" d="M39.06,37.46L39,.02s.04,0,.06,0C59.84,.02,76.94,16.92,76.94,37.46s-17.1,37.43-37.88,37.43c-.86,0-1.72-.03-2.58-.09l2.58-37.35Z"/><path class="cls-4" d="M38.66,45.5l-.05-16.3s.03,0,.05,0c8.15,0,14.85,7.36,14.85,16.3s-6.71,16.3-14.85,16.3v-16.3Z"/><path class="cls-9" d="M39.36,63.04v12.98c-16.03-.68-32.73-.25-28.33-9.46s17.17-14.66,28.38-14.64c0,0-.03,7.41-.05,11.12Z"/><path class="cls-3" d="M39,39.05l.05,19.3s-.03,0-.05,0c-8.15,0-14.85-8.71-14.85-19.3s6.71-19.3,14.85-19.3v19.3Z"/><path class="cls-11" d="M36.45,8.13c-6.69-.12-12.2,4.87-12.34,11.17v16.95h-3.34c-1.45,0-2.63,1.11-2.63,2.48h0v.66c0,1.37,1.18,2.48,2.63,2.48h18.28V8.13h-2.6Z"/><path class="cls-10" d="M63.95,38.97v-.78c0-1.6-1.4-2.9-3.13-2.9h-3.99V15.73c.26-7.14-5.78-13.1-13.47-13.34h-4.3V41.86h21.76c1.73,0,3.13-1.3,3.13-2.9h0Z"/><path class="cls-1" d="M39.28,64.89v-12.98c17.5,.68,35.73,.25,30.93,9.46s-18.74,14.66-30.99,14.64c0,0,.04-7.41,.05-11.12Z"/></svg>