<?xml version="1.0" encoding="UTF-8"?><svg id="Layer_1" xmlns="http://www.w3.org/2000/svg" viewBox="0 0 379.29 76.02"><defs><style>.cls-1{fill:#010101;}.cls-2{fill:#e5e5e4;}.cls-3{fill:#7f8080;}.cls-4{fill:#991915;}.cls-5{fill:#9089c2;}.cls-6{fill:#be1823;}.cls-7{fill:#e30615;}.cls-8{fill:#434342;}.cls-9{fill:#1a1b19;}.cls-10{fill:#595757;}.cls-11{fill:#3b3a3a;}</style></defs><g><path class="cls-11" d="M122.07,49.48v-6.14h-6.42c-.52,0-.9-.14-1.15-.41-.25-.28-.37-.7-.37-1.27,0-.66,.11-1.1,.34-1.35,.23-.24,.66-.36,1.29-.36h11.19c.45,0,.78,.14,1,.43,.22,.28,.32,.71,.32,1.28,0,.64-.14,1.08-.43,1.32s-.79,.36-1.51,.36h-.34v7.8c0,.47-.05,.79-.16,.97-.1,.18-.31,.36-.62,.53-.98,.59-2.42,1.09-4.3,1.5s-3.79,.62-5.72,.62c-4.63,0-8.37-1.48-11.21-4.43s-4.27-6.8-4.27-11.55,1.4-8.67,4.18-11.76c2.79-3.09,6.34-4.64,10.66-4.64,1.17,0,2.35,.13,3.54,.4,1.18,.27,2.41,.67,3.69,1.2,.17-.45,.41-.77,.71-.97,.3-.2,.69-.3,1.18-.3,.81,0,1.35,.24,1.62,.73s.4,1.6,.4,3.34v3.52c0,.85-.15,1.44-.44,1.77-.29,.34-.8,.5-1.53,.5-.9,0-1.54-.55-1.94-1.66-.14-.33-.25-.58-.34-.75-.64-1.36-1.55-2.42-2.75-3.16-1.19-.74-2.56-1.11-4.09-1.11-3.09,0-5.56,1.12-7.41,3.35-1.85,2.23-2.77,5.25-2.77,9.04s1.02,7.03,3.06,9.34c2.04,2.31,4.75,3.47,8.13,3.47,.98,0,2-.13,3.04-.39,1.04-.26,2.19-.67,3.43-1.24Z"/><path class="cls-11" d="M159.79,36.14c2.02,.55,3.59,1.56,4.7,3.02,1.11,1.46,1.67,3.24,1.67,5.35,0,3.02-1.07,5.49-3.21,7.42s-4.91,2.89-8.31,2.89c-2.62,0-4.96-.5-7.01-1.51-2.05-1.01-3.07-2.12-3.07-3.33,0-.52,.19-.95,.56-1.28,.37-.34,.82-.5,1.36-.5,.29,0,1.36,.44,3.2,1.32s3.55,1.32,5.14,1.32c2.05,0,3.72-.59,5.01-1.76,1.29-1.17,1.93-2.69,1.93-4.56,0-1.54-.44-2.84-1.33-3.9-.89-1.06-2.11-1.74-3.66-2.03-.47-.09-1.08-.16-1.84-.21-1.45-.09-2.17-.69-2.17-1.81,0-1.02,.71-1.61,2.12-1.79,.55-.05,1.01-.11,1.37-.18,1.35-.21,2.43-.76,3.26-1.66s1.24-1.99,1.24-3.26c0-1.64-.51-2.98-1.53-4.01s-2.31-1.55-3.88-1.55c-1.45,0-2.94,.45-4.47,1.35s-2.48,1.35-2.86,1.35c-.48,0-.88-.16-1.2-.47s-.48-.7-.48-1.17c0-1.05,.97-2.1,2.9-3.15,1.93-1.04,4.07-1.57,6.42-1.57,2.69,0,4.94,.82,6.72,2.45s2.68,3.64,2.68,6.02c0,1.81-.43,3.31-1.28,4.48s-2.18,2.09-3.97,2.75Z"/><path class="cls-11" d="M191.51,36.99c.93-1.21,1.97-2.12,3.11-2.72s2.38-.91,3.73-.91c2.73,0,5.05,1.03,6.95,3.08,1.91,2.05,2.86,4.58,2.86,7.59s-.92,5.72-2.77,7.74-4.21,3.03-7.1,3.03c-3.4,0-6.12-1.35-8.17-4.05-2.05-2.7-3.07-6.31-3.07-10.81,0-5.87,1.51-10.59,4.53-14.15,3.02-3.57,7.01-5.35,11.96-5.35,1.67,0,2.78,.12,3.31,.36,.54,.24,.8,.7,.8,1.37,0,1.11-1.02,1.68-3.06,1.71-1.35,.02-2.43,.1-3.24,.26-2.73,.52-4.94,1.89-6.64,4.1-1.7,2.22-2.78,5.13-3.22,8.74Zm.57,6.89c0,2.12,.56,3.86,1.68,5.19,1.12,1.34,2.56,2.01,4.33,2.01,1.66,0,3.02-.63,4.08-1.89,1.06-1.26,1.59-2.91,1.59-4.95s-.55-3.82-1.64-5.13-2.51-1.97-4.23-1.97-3.06,.63-4.16,1.89c-1.1,1.26-1.64,2.87-1.64,4.84Z"/><path class="cls-11" d="M239.56,54.81c-3.25,0-5.82-1.53-7.73-4.6-1.91-3.06-2.86-7.26-2.86-12.6s.95-9.51,2.86-12.57c1.91-3.06,4.48-4.6,7.73-4.6s5.83,1.54,7.74,4.61,2.87,7.26,2.87,12.56-.96,9.49-2.87,12.57c-1.92,3.08-4.5,4.62-7.74,4.62Zm0-30.66c-1.99,0-3.53,1.18-4.63,3.53-1.11,2.35-1.66,5.67-1.66,9.95s.55,7.63,1.66,9.99c1.1,2.36,2.65,3.54,4.63,3.54s3.56-1.18,4.66-3.54,1.66-5.69,1.66-9.99-.55-7.6-1.66-9.95-2.66-3.53-4.66-3.53Z"/><path class="cls-6" d="M275.28,53.95h-5.26c-.64,0-1.12-.16-1.44-.47-.32-.31-.48-.78-.48-1.4,0-.67,.19-1.14,.56-1.4,.37-.26,1.07-.39,2.11-.39h.47V26.97h-.41c-1.04,0-1.75-.14-2.14-.41s-.58-.76-.58-1.45c0-.64,.16-1.11,.48-1.41,.32-.3,.82-.45,1.49-.45h10.93c4.3,0,7.73,1.39,10.28,4.16s3.83,6.51,3.83,11.23c0,2.3-.37,4.43-1.1,6.4-.73,1.97-1.8,3.7-3.2,5.18-1.29,1.35-2.87,2.33-4.73,2.94-1.86,.61-4.24,.92-7.16,.92-.35,0-.93-.02-1.75-.05s-1.45-.05-1.9-.05Zm0-3.65c.55,.05,1.1,.09,1.64,.12,.54,.03,1.07,.04,1.59,.04,4.25,0,7.36-.95,9.34-2.85,1.98-1.9,2.96-4.89,2.96-8.99s-.99-7.1-2.98-8.97c-1.99-1.87-5.16-2.81-9.53-2.81-.81,0-1.43,0-1.85,.03-.42,.02-.82,.05-1.18,.1v23.33Z"/><path class="cls-6" d="M319.36,26.97h-3.78c-1.05,0-1.79-.14-2.21-.43-.42-.29-.63-.76-.63-1.44,0-.71,.19-1.2,.56-1.46,.37-.27,1.38-.4,3.04-.4h7.38c.95,0,1.59,.13,1.93,.38,.34,.25,.64,.71,.92,1.39l10.13,25.3h.44c.93,0,1.57,.13,1.92,.39,.35,.26,.52,.73,.52,1.4,0,.71-.16,1.2-.49,1.46-.33,.27-.94,.4-1.84,.4h-7.05c-1.31,0-2.15-.13-2.52-.4-.37-.27-.56-.76-.56-1.46,0-.66,.2-1.12,.61-1.39,.4-.27,1.17-.4,2.29-.4h2.41l-2.51-6.16h-13.16l-2.23,6.16h2.51c1.14,0,1.92,.13,2.33,.4,.41,.27,.62,.73,.62,1.39,0,.71-.19,1.2-.56,1.46-.37,.27-1.19,.4-2.45,.4h-6.81c-1.1,0-1.84-.13-2.2-.4-.36-.27-.54-.76-.54-1.46s.18-1.14,.54-1.4c.36-.26,1.06-.39,2.1-.39h.49l8.81-23.33Zm-1.32,13.73h10.59l-5.57-13.73-5.02,13.73Z"/><path class="cls-6" d="M379.29,38.57c0,4.73-1.31,8.61-3.94,11.64s-5.98,4.55-10.07,4.55-7.4-1.52-10.03-4.56c-2.63-3.04-3.95-6.91-3.95-11.63s1.3-8.65,3.91-11.67c2.61-3.01,5.97-4.52,10.07-4.52s7.45,1.52,10.07,4.56,3.94,6.91,3.94,11.63Zm-14.01,12.53c2.9,0,5.18-1.11,6.85-3.33,1.67-2.22,2.5-5.29,2.5-9.2s-.83-6.98-2.5-9.2c-1.67-2.22-3.95-3.34-6.85-3.34s-5.2,1.1-6.85,3.31-2.47,5.28-2.47,9.23,.83,6.98,2.5,9.2c1.67,2.22,3.94,3.33,6.82,3.33Z"/></g><path class="cls-7" d="M41.57,54.37l-10.4,2.39-.47,13.82,11.3-2.67-.43-13.54Z"/><ellipse class="cls-5" cx="37.88" cy="37.56" rx="37.88" ry="37.56" transform="translate(-1.32 1.38) rotate(-2.05)"/><path class="cls-6" d="M36.52,69.82l5.92-.8-.45-7.92-5.47,.7v8.01Z"/><path class="cls-4" d="M38,37.46L38.03,.03c20.77,.02,37.85,16.91,37.85,37.43s-17.1,37.43-37.88,37.43c-.86,0-1.72-.03-2.58-.09l2.58-37.35Z"/><path class="cls-3" d="M37.66,45.51l-.05-16.3s.03,0,.05,0c8.15,0,14.85,7.36,14.85,16.3s-6.71,16.3-14.85,16.3v-16.3Z"/><path class="cls-8" d="M38.36,63.04v12.98c-16.03-.68-32.73-.25-28.33-9.46s17.17-14.66,28.38-14.64c0,0-.03,7.41-.05,11.12Z"/><path class="cls-2" d="M38,39.06l.05,19.3s-.03,0-.05,0c-8.15,0-14.85-8.71-14.85-19.3s6.71-19.3,14.85-19.3v19.3Z"/><path class="cls-10" d="M35.45,8.13c-6.69-.12-12.2,4.87-12.34,11.17v16.95h-3.34c-1.45,0-2.63,1.11-2.63,2.48h0v.66c0,1.37,1.18,2.48,2.63,2.48h18.28V8.13h-2.6Z"/><path class="cls-9" d="M62.95,38.97v-.78c0-1.6-1.4-2.9-3.13-2.9h-3.99V15.74c.26-7.14-5.78-13.1-13.47-13.34h-4.3V41.87h21.76c1.73,0,3.13-1.3,3.13-2.9h0Z"/><path class="cls-1" d="M38.28,64.9v-12.98c17.5,.68,35.73,.25,30.93,9.46s-18.74,14.66-30.99,14.64c0,0,.04-7.41,.05-11.12Z"/></svg>