<?xml version="1.0" encoding="UTF-8"?><svg id="Layer_1" xmlns="http://www.w3.org/2000/svg" viewBox="0 0 131.64 165.67"><defs><style>.cls-1{fill:#010101;}.cls-2{fill:#fff;}.cls-3{fill:#7f8080;}.cls-4{fill:#991915;}.cls-5{fill:#9089c2;}.cls-6{fill:#be1823;}.cls-7{fill:#e30615;}.cls-8{fill:#1a1b19;}.cls-9{fill:#595757;}.cls-10{fill:#3b3a3a;}</style></defs><g><path class="cls-10" d="M10.42,163.19v-2.86h-2.99c-.24,0-.42-.06-.54-.19-.12-.13-.17-.33-.17-.59,0-.31,.05-.51,.16-.63,.11-.11,.31-.17,.6-.17h5.21c.21,0,.36,.07,.46,.2,.1,.13,.15,.33,.15,.6,0,.3-.07,.5-.2,.62-.13,.11-.37,.17-.7,.17h-.16v3.63c0,.22-.02,.37-.07,.45-.05,.09-.14,.17-.29,.25-.46,.27-1.13,.51-2,.7-.88,.19-1.76,.29-2.66,.29-2.15,0-3.89-.69-5.22-2.06s-1.99-3.17-1.99-5.38,.65-4.03,1.95-5.47c1.3-1.44,2.95-2.16,4.96-2.16,.55,0,1.1,.06,1.65,.19,.55,.13,1.12,.31,1.72,.56,.08-.21,.19-.36,.33-.45,.14-.09,.32-.14,.55-.14,.38,0,.63,.11,.75,.34,.12,.23,.19,.74,.19,1.56v1.64c0,.39-.07,.67-.2,.83s-.37,.23-.71,.23c-.42,0-.72-.26-.9-.77-.06-.15-.12-.27-.16-.35-.3-.64-.72-1.13-1.28-1.47s-1.19-.52-1.91-.52c-1.44,0-2.59,.52-3.45,1.56-.86,1.04-1.29,2.44-1.29,4.21s.47,3.27,1.42,4.35,2.21,1.61,3.79,1.61c.46,0,.93-.06,1.42-.18,.49-.12,1.02-.31,1.6-.58Z"/><path class="cls-10" d="M28.22,156.98c.94,.26,1.67,.72,2.19,1.4,.52,.68,.78,1.51,.78,2.49,0,1.41-.5,2.56-1.49,3.45s-2.29,1.34-3.87,1.34c-1.22,0-2.31-.23-3.26-.71-.95-.47-1.43-.99-1.43-1.55,0-.24,.09-.44,.26-.6,.17-.16,.38-.24,.63-.24,.14,0,.63,.21,1.49,.62,.86,.41,1.65,.62,2.39,.62,.96,0,1.73-.27,2.33-.82s.9-1.25,.9-2.12c0-.71-.21-1.32-.62-1.81s-.98-.81-1.71-.95c-.22-.04-.5-.07-.86-.1-.68-.04-1.01-.32-1.01-.84,0-.47,.33-.75,.99-.83,.26-.02,.47-.05,.64-.08,.63-.1,1.13-.35,1.52-.77,.39-.42,.58-.92,.58-1.52,0-.76-.24-1.39-.71-1.87-.47-.48-1.08-.72-1.81-.72-.67,0-1.37,.21-2.08,.63-.71,.42-1.16,.63-1.33,.63-.22,0-.41-.07-.56-.22-.15-.15-.22-.33-.22-.54,0-.49,.45-.98,1.35-1.47,.9-.49,1.9-.73,2.99-.73,1.25,0,2.3,.38,3.13,1.14,.83,.76,1.25,1.69,1.25,2.8,0,.84-.2,1.54-.6,2.09-.4,.55-1.01,.97-1.85,1.28Z"/><path class="cls-10" d="M43.24,157.37c.43-.56,.92-.98,1.45-1.27,.53-.28,1.11-.42,1.74-.42,1.27,0,2.35,.48,3.24,1.44s1.33,2.13,1.33,3.53-.43,2.66-1.29,3.61c-.86,.94-1.96,1.41-3.3,1.41-1.58,0-2.85-.63-3.8-1.89s-1.43-2.94-1.43-5.03c0-2.73,.7-4.93,2.11-6.59,1.41-1.66,3.26-2.49,5.57-2.49,.78,0,1.29,.06,1.54,.17s.37,.33,.37,.64c0,.51-.47,.78-1.42,.8-.63,0-1.13,.05-1.51,.12-1.27,.24-2.3,.88-3.09,1.91-.79,1.03-1.29,2.39-1.5,4.07Zm.27,3.21c0,.99,.26,1.8,.78,2.42,.52,.62,1.19,.94,2.01,.94,.77,0,1.41-.29,1.9-.88,.49-.59,.74-1.35,.74-2.3s-.26-1.78-.77-2.39c-.51-.61-1.17-.92-1.97-.92s-1.43,.29-1.94,.88c-.51,.59-.77,1.34-.77,2.25Z"/><path class="cls-10" d="M65.85,165.67c-1.51,0-2.71-.71-3.6-2.14-.89-1.43-1.33-3.38-1.33-5.87s.44-4.43,1.33-5.85c.89-1.43,2.09-2.14,3.6-2.14s2.71,.72,3.61,2.15c.89,1.43,1.34,3.38,1.34,5.85s-.45,4.42-1.34,5.85c-.89,1.43-2.09,2.15-3.61,2.15Zm0-14.28c-.92,0-1.64,.55-2.16,1.64s-.77,2.64-.77,4.63,.26,3.56,.77,4.65c.51,1.1,1.23,1.65,2.16,1.65s1.66-.55,2.17-1.65c.51-1.1,.77-2.65,.77-4.65s-.26-3.54-.77-4.63-1.24-1.64-2.17-1.64Z"/><path class="cls-6" d="M82.73,165.27h-2.45c-.3,0-.52-.07-.67-.22s-.22-.36-.22-.65c0-.31,.09-.53,.26-.65,.17-.12,.5-.18,.98-.18h.22v-10.86h-.19c-.48,0-.81-.06-.99-.19s-.27-.35-.27-.68c0-.3,.07-.52,.22-.66,.15-.14,.38-.21,.69-.21h5.09c2,0,3.6,.65,4.79,1.94s1.78,3.03,1.78,5.23c0,1.07-.17,2.06-.51,2.98-.34,.92-.84,1.72-1.49,2.41-.6,.63-1.34,1.08-2.2,1.37-.86,.29-1.98,.43-3.33,.43-.16,0-.43,0-.81-.02-.38-.02-.68-.02-.89-.02Zm0-1.7c.26,.02,.51,.04,.77,.05,.25,.01,.5,.02,.74,.02,1.98,0,3.43-.44,4.35-1.33,.92-.88,1.38-2.28,1.38-4.18s-.46-3.31-1.39-4.18c-.93-.87-2.4-1.31-4.44-1.31-.38,0-.67,0-.86,.01s-.38,.02-.55,.05v10.86Z"/><path class="cls-6" d="M103.5,152.71h-1.76c-.49,0-.83-.07-1.03-.2-.2-.13-.3-.36-.3-.67,0-.33,.09-.56,.26-.68,.17-.12,.65-.19,1.42-.19h3.44c.44,0,.74,.06,.9,.17,.16,.12,.3,.33,.43,.65l4.72,11.78h.2c.43,0,.73,.06,.89,.18,.16,.12,.24,.34,.24,.65,0,.33-.08,.56-.23,.68-.15,.12-.44,.19-.86,.19h-3.28c-.61,0-1-.06-1.18-.19-.17-.12-.26-.35-.26-.68,0-.31,.09-.52,.28-.65,.19-.12,.54-.19,1.07-.19h1.12l-1.17-2.87h-6.13l-1.04,2.87h1.17c.53,0,.89,.06,1.09,.19,.19,.13,.29,.34,.29,.65,0,.33-.09,.56-.26,.68-.17,.12-.55,.19-1.14,.19h-3.17c-.51,0-.86-.06-1.02-.19-.17-.12-.25-.35-.25-.68s.09-.53,.25-.65c.17-.12,.49-.18,.98-.18h.23l4.1-10.86Zm-.62,6.39h4.93l-2.59-6.39-2.34,6.39Z"/><path class="cls-6" d="M131.64,158.11c0,2.2-.61,4.01-1.83,5.42-1.22,1.41-2.78,2.12-4.69,2.12s-3.45-.71-4.67-2.12c-1.23-1.41-1.84-3.22-1.84-5.41s.61-4.03,1.82-5.43,2.78-2.1,4.69-2.1,3.47,.71,4.69,2.12c1.22,1.42,1.83,3.22,1.83,5.41Zm-6.52,5.83c1.35,0,2.41-.52,3.19-1.55,.78-1.04,1.16-2.46,1.16-4.28s-.39-3.25-1.16-4.28c-.78-1.03-1.84-1.55-3.19-1.55s-2.42,.51-3.19,1.54c-.77,1.03-1.15,2.46-1.15,4.3s.39,3.25,1.16,4.28c.78,1.03,1.83,1.55,3.18,1.55Z"/></g><path class="cls-7" d="M72.61,92.34l-17.74,4.08-.81,23.58,19.27-4.56s-.73-23.11-.73-23.11Z"/><ellipse class="cls-5" cx="64.63" cy="63.87" rx="64.63" ry="63.86" transform="translate(-2.25 2.36) rotate(-2.05)"/><path class="cls-6" d="M63.99,118.69l10.09-1.36-.76-13.5-9.33,1.19s0,13.67,0,13.67Z"/><path class="cls-4" d="M66.71,63.87L66.68,0s.02,0,.03,0c35.46,0,64.63,28.83,64.63,63.86,0,35.03-29.18,63.86-64.63,63.86-1.47,0-2.94-.05-4.4-.15l4.4-63.72Z"/><path class="cls-3" d="M65.94,77.21l-.09-27.81s.06,0,.09,0c13.9,0,25.34,12.55,25.34,27.81s-11.44,27.81-25.34,27.81v-27.81Z"/><path class="cls-9" d="M67.13,107.13v22.14c-27.35-1.16-55.84-.43-48.34-16.14,7.5-15.71,29.29-25.01,48.42-24.97,0,0-.06,12.65-.08,18.98Z"/><path class="cls-2" d="M66.52,66.21l.09,32.92s-.06,0-.09,0c-13.9,0-25.34-14.86-25.34-32.92s11.44-32.92,25.34-32.92v32.92Z"/><path class="cls-9" d="M62.18,13.44c-11.41-.2-20.82,8.31-21.05,19.05v28.92h-5.69c-2.48,0-4.49,1.89-4.49,4.22h0v1.13c0,2.33,2.01,4.22,4.49,4.22h31.19V13.44h-4.44Z"/><path class="cls-8" d="M109.08,66.06v-1.33c0-2.73-2.39-4.94-5.34-4.94h-6.8V26.42c.45-12.17-9.86-22.34-22.99-22.76h-7.33V71h37.12c2.95,0,5.34-2.21,5.34-4.94h0Z"/><path class="cls-1" d="M67,110.29v-22.14c29.86,1.16,60.96,.43,52.77,16.14-8.19,15.71-31.97,25.01-52.86,24.97,0,0,.06-12.65,.09-18.98Z"/></svg>