<?xml version="1.0" encoding="UTF-8"?><svg id="Layer_1" xmlns="http://www.w3.org/2000/svg" viewBox="0 0 130.63 167.29"><defs><style>.cls-1{fill:#010101;}.cls-2{fill:#e5e5e4;}.cls-3{fill:#7f8080;}.cls-4{fill:#991915;}.cls-5{fill:#9089c2;}.cls-6{fill:#be1823;}.cls-7{fill:#e0e0e0;}.cls-8{fill:#e30615;}.cls-9{fill:#595757;}</style></defs><path class="cls-8" d="M72.04,92.71l-17.74,4.08-.81,23.58,19.27-4.56s-.73-23.11-.73-23.11Z"/><ellipse class="cls-5" cx="64.63" cy="63.87" rx="64.63" ry="63.86" transform="translate(-2.25 2.36) rotate(-2.05)"/><path class="cls-6" d="M63.43,119.07l10.09-1.36-.76-13.5-9.33,1.19s0,13.67,0,13.67Z"/><path class="cls-7" d="M10.34,164.83v-2.84h-2.97c-.24,0-.42-.06-.53-.19-.12-.13-.17-.32-.17-.59,0-.3,.05-.51,.16-.62,.1-.11,.3-.17,.6-.17h5.17c.21,0,.36,.07,.46,.2,.1,.13,.15,.33,.15,.59,0,.3-.07,.5-.2,.61-.13,.11-.36,.17-.7,.17h-.16v3.6c0,.22-.02,.37-.07,.45-.05,.08-.14,.17-.29,.25-.45,.27-1.12,.5-1.99,.69-.87,.19-1.75,.29-2.64,.29-2.14,0-3.86-.68-5.18-2.05-1.32-1.36-1.97-3.14-1.97-5.34s.64-4,1.93-5.43c1.29-1.43,2.93-2.14,4.92-2.14,.54,0,1.09,.06,1.63,.19,.55,.12,1.11,.31,1.7,.56,.08-.21,.19-.36,.33-.45,.14-.09,.32-.14,.55-.14,.37,0,.62,.11,.75,.34,.12,.22,.19,.74,.19,1.54v1.63c0,.39-.07,.66-.2,.82s-.37,.23-.71,.23c-.41,0-.71-.26-.9-.77-.06-.15-.12-.27-.16-.35-.3-.63-.72-1.12-1.27-1.46-.55-.34-1.18-.52-1.89-.52-1.43,0-2.57,.52-3.42,1.55-.85,1.03-1.28,2.42-1.28,4.18s.47,3.25,1.41,4.31,2.19,1.6,3.76,1.6c.45,0,.92-.06,1.41-.18,.48-.12,1.01-.31,1.59-.57Z"/><path class="cls-7" d="M28,158.66c.93,.26,1.66,.72,2.17,1.39,.52,.67,.77,1.5,.77,2.47,0,1.4-.5,2.54-1.48,3.43s-2.27,1.33-3.84,1.33c-1.21,0-2.29-.23-3.24-.7-.95-.47-1.42-.98-1.42-1.54,0-.24,.09-.44,.26-.59,.17-.16,.38-.23,.63-.23,.14,0,.63,.2,1.48,.61,.85,.41,1.64,.61,2.38,.61,.95,0,1.72-.27,2.31-.81,.59-.54,.89-1.24,.89-2.11,0-.71-.21-1.31-.62-1.8s-.97-.8-1.69-.94c-.22-.04-.5-.07-.85-.1-.67-.04-1-.32-1-.84,0-.47,.33-.75,.98-.83,.26-.02,.47-.05,.63-.08,.62-.1,1.12-.35,1.51-.77,.38-.41,.57-.92,.57-1.51,0-.76-.24-1.38-.71-1.85-.47-.48-1.07-.72-1.79-.72-.67,0-1.36,.21-2.06,.62-.71,.42-1.15,.62-1.32,.62-.22,0-.41-.07-.56-.22-.15-.14-.22-.32-.22-.54,0-.49,.45-.97,1.34-1.45,.89-.48,1.88-.72,2.97-.72,1.24,0,2.28,.38,3.1,1.13,.82,.75,1.24,1.68,1.24,2.78,0,.84-.2,1.53-.59,2.07-.4,.54-1.01,.97-1.84,1.27Z"/><path class="cls-7" d="M42.9,159.06c.43-.56,.91-.98,1.44-1.26,.53-.28,1.1-.42,1.72-.42,1.26,0,2.33,.48,3.21,1.42s1.32,2.12,1.32,3.51-.43,2.64-1.28,3.58c-.85,.93-1.95,1.4-3.28,1.4-1.57,0-2.83-.62-3.77-1.87-.95-1.25-1.42-2.91-1.42-5,0-2.71,.7-4.89,2.09-6.54,1.4-1.65,3.24-2.47,5.53-2.47,.77,0,1.28,.06,1.53,.17s.37,.32,.37,.63c0,.51-.47,.77-1.41,.79-.62,0-1.12,.05-1.5,.12-1.26,.24-2.28,.87-3.07,1.9-.79,1.02-1.28,2.37-1.49,4.04Zm.26,3.18c0,.98,.26,1.78,.78,2.4,.52,.62,1.18,.93,2,.93,.77,0,1.39-.29,1.88-.87,.49-.58,.73-1.34,.73-2.29s-.25-1.76-.76-2.37-1.16-.91-1.96-.91-1.41,.29-1.92,.87c-.51,.58-.76,1.33-.76,2.24Z"/><path class="cls-7" d="M65.34,167.29c-1.5,0-2.69-.71-3.57-2.12-.88-1.42-1.32-3.36-1.32-5.82s.44-4.39,1.32-5.81c.88-1.42,2.07-2.12,3.57-2.12s2.69,.71,3.58,2.13c.88,1.42,1.33,3.35,1.33,5.8s-.44,4.38-1.33,5.81c-.89,1.42-2.08,2.14-3.58,2.14Zm0-14.17c-.92,0-1.63,.54-2.14,1.63-.51,1.09-.77,2.62-.77,4.6s.26,3.53,.77,4.62c.51,1.09,1.22,1.64,2.14,1.64s1.64-.55,2.15-1.64c.51-1.09,.77-2.63,.77-4.62s-.26-3.51-.77-4.6-1.23-1.63-2.15-1.63Z"/><path class="cls-6" d="M82.09,166.89h-2.43c-.3,0-.52-.07-.66-.22s-.22-.36-.22-.65c0-.31,.09-.53,.26-.65,.17-.12,.5-.18,.97-.18h.22v-10.78h-.19c-.48,0-.81-.06-.99-.19-.18-.13-.27-.35-.27-.67,0-.3,.07-.51,.22-.65,.15-.14,.38-.21,.69-.21h5.05c1.99,0,3.57,.64,4.75,1.92,1.18,1.28,1.77,3.01,1.77,5.19,0,1.06-.17,2.05-.51,2.96-.34,.91-.83,1.71-1.48,2.39-.6,.62-1.33,1.08-2.18,1.36-.86,.28-1.96,.43-3.31,.43-.16,0-.43,0-.81-.02-.38-.02-.67-.02-.88-.02Zm0-1.69c.26,.02,.51,.04,.76,.05,.25,.01,.5,.02,.74,.02,1.96,0,3.4-.44,4.31-1.32,.91-.88,1.37-2.26,1.37-4.15s-.46-3.28-1.38-4.14c-.92-.87-2.38-1.3-4.4-1.3-.38,0-.66,0-.86,.01s-.38,.02-.54,.05v10.78Z"/><path class="cls-6" d="M102.7,154.43h-1.75c-.49,0-.83-.07-1.02-.2-.2-.13-.29-.35-.29-.66,0-.33,.09-.55,.26-.68,.17-.12,.64-.19,1.41-.19h3.41c.44,0,.74,.06,.89,.17,.16,.12,.3,.33,.43,.64l4.68,11.69h.2c.43,0,.73,.06,.89,.18,.16,.12,.24,.34,.24,.65,0,.33-.08,.55-.23,.68-.15,.12-.43,.19-.85,.19h-3.25c-.61,0-.99-.06-1.17-.19-.17-.12-.26-.35-.26-.68,0-.3,.09-.52,.28-.64,.19-.12,.54-.19,1.06-.19h1.11l-1.16-2.85h-6.08l-1.03,2.85h1.16c.53,0,.89,.06,1.08,.19,.19,.12,.29,.34,.29,.64,0,.33-.09,.55-.26,.68-.17,.12-.55,.19-1.13,.19h-3.15c-.51,0-.85-.06-1.02-.19s-.25-.35-.25-.68,.08-.53,.25-.65,.49-.18,.97-.18h.23l4.07-10.78Zm-.61,6.34h4.89l-2.57-6.34-2.32,6.34Z"/><path class="cls-6" d="M130.63,159.79c0,2.19-.61,3.98-1.82,5.38-1.21,1.4-2.76,2.1-4.65,2.1s-3.42-.7-4.64-2.11c-1.22-1.4-1.82-3.19-1.82-5.37s.6-4,1.81-5.39,2.76-2.09,4.65-2.09,3.44,.7,4.65,2.11c1.21,1.4,1.82,3.19,1.82,5.37Zm-6.47,5.79c1.34,0,2.39-.51,3.16-1.54,.77-1.03,1.15-2.44,1.15-4.25s-.39-3.22-1.15-4.25c-.77-1.03-1.82-1.54-3.16-1.54s-2.4,.51-3.16,1.53-1.14,2.44-1.14,4.26,.38,3.22,1.15,4.25c.77,1.03,1.82,1.54,3.15,1.54Z"/><path class="cls-4" d="M66,63.87L65.97,0s.02,0,.03,0c35.46,0,64.63,28.83,64.63,63.86s-29.18,63.86-64.63,63.86c-1.47,0-2.94-.05-4.4-.15l4.4-63.72Z"/><path class="cls-3" d="M65.38,77.59l-.09-27.81s.06,0,.09,0c13.9,0,25.34,12.55,25.34,27.81s-11.44,27.81-25.34,27.81v-27.81Z"/><path class="cls-9" d="M66.57,107.5v22.14c-27.35-1.16-55.84-.43-48.34-16.14,7.5-15.71,29.29-25.01,48.42-24.97,0,0-.06,12.65-.08,18.98Z"/><path class="cls-2" d="M65.96,66.59l.09,32.92s-.06,0-.09,0c-13.9,0-25.34-14.86-25.34-32.92s11.44-32.92,25.34-32.92v32.92Z"/><path class="cls-9" d="M61.61,13.82c-11.41-.2-20.82,8.31-21.05,19.05v28.92h-5.69c-2.48,0-4.49,1.89-4.49,4.22h0v1.13c0,2.33,2.01,4.22,4.49,4.22h31.19V13.82h-4.44Z"/><path class="cls-1" d="M108.52,66.44v-1.33c0-2.73-2.39-4.94-5.34-4.94h-6.8V26.8c.45-12.17-9.86-22.34-22.99-22.76h-7.33V71.38h37.12c2.95,0,5.34-2.21,5.34-4.94h0Z"/><path class="cls-1" d="M66.44,110.67v-22.14c29.86,1.16,60.96,.43,52.77,16.14s-31.97,25.01-52.86,24.97c0,0,.06-12.65,.09-18.98Z"/></svg>